RBDS018runT35_grf
version=1
nRows=18
nColumns=19
inDegrees=no
endheader
time	ground_force_r_vx	ground_force_r_vy	ground_force_r_vz	ground_force_r_px	ground_force_r_py	ground_force_r_pz	ground_force_r_mx	ground_force_r_my	ground_force_r_mz	ground_force_l_vx	ground_force_l_vy	ground_force_l_vz	ground_force_l_px	ground_force_l_py	ground_force_l_pz	ground_force_l_mx	ground_force_l_my	ground_force_l_mz
     22.49800000	      0.00000000	      0.00000000	      0.00000000	      0.00000000	      0.00000000	      0.00000000	      0.00000000	      0.00000000	      0.00000000	    275.40749742	   1180.11271530	      3.31407719	      1.85959748	      0.00000000	      0.99832862	     -0.00000000	      2.50680598	     -0.00000000
     22.49900000	      0.00000000	      0.00000000	      0.00000000	      0.00000000	      0.00000000	      0.00000000	      0.00000000	      0.00000000	      0.00000000	    276.80052225	   1158.30291763	      2.01656237	      1.85644492	      0.00000000	      0.99841688	     -0.00000000	      2.37891583	     -0.00000000
     22.50000000	      0.00000000	      0.00000000	      0.00000000	      0.00000000	      0.00000000	      0.00000000	      0.00000000	      0.00000000	      0.00000000	    278.19354708	   1136.49311996	      0.71904756	      1.85329235	      0.00000000	      0.99850515	     -0.00000000	      2.25102569	     -0.00000000
     22.50100000	      0.00000000	      0.00000000	      0.00000000	      0.00000000	      0.00000000	      0.00000000	      0.00000000	      0.00000000	      0.00000000	    278.83509466	   1114.28069753	     -0.52422742	      1.85030478	      0.00000000	      0.99858769	     -0.00000000	      2.11662204	     -0.00000000
     22.50200000	      0.00000000	      0.00000000	      0.00000000	      0.00000000	      0.00000000	      0.00000000	      0.00000000	      0.00000000	      0.00000000	    279.47664224	   1092.06827510	     -1.76750240	      1.84731722	      0.00000000	      0.99867022	     -0.00000000	      1.98221840	     -0.00000000
     22.50300000	      0.00000000	      0.00000000	      0.00000000	      0.00000000	      0.00000000	      0.00000000	      0.00000000	      0.00000000	      0.00000000	    280.11818982	   1069.85585267	     -3.01077738	      1.84432965	      0.00000000	      0.99875276	     -0.00000000	      1.84781476	     -0.00000000
     22.50400000	      0.00000000	      0.00000000	      0.00000000	      0.00000000	      0.00000000	      0.00000000	      0.00000000	      0.00000000	      0.00000000	    280.25593820	   1047.47594575	     -4.20616854	      1.84147235	      0.00000000	      0.99883064	     -0.00000000	      1.70839353	     -0.00000000
     22.50500000	      0.00000000	      0.00000000	      0.00000000	      0.00000000	      0.00000000	      0.00000000	      0.00000000	      0.00000000	      0.00000000	    280.14178698	   1025.01229659	     -5.37761781	      1.83868018	      0.00000000	      0.99890620	     -0.00000000	      1.56646351	     -0.00000000
     22.50600000	      0.00000000	      0.00000000	      0.00000000	      0.00000000	      0.00000000	      0.00000000	      0.00000000	      0.00000000	      0.00000000	    280.02763575	   1002.54864743	     -6.54906707	      1.83588801	      0.00000000	      0.99898175	     -0.00000000	      1.42453349	     -0.00000000
     22.50700000	      0.00000000	      0.00000000	      0.00000000	      0.00000000	      0.00000000	      0.00000000	      0.00000000	      0.00000000	      0.00000000	    279.66468506	    980.05342229	     -7.69153152	      1.83317074	      0.00000000	      0.99905468	     -0.00000000	      1.27975306	     -0.00000000
     22.50800000	      0.00000000	      0.00000000	      0.00000000	      0.00000000	      0.00000000	      0.00000000	      0.00000000	      0.00000000	      0.00000000	    278.80413542	    957.49504518	     -8.77602632	      1.83060326	      0.00000000	      0.99912234	     -0.00000000	      1.12927182	     -0.00000000
     22.50900000	      0.00000000	      0.00000000	      0.00000000	      0.00000000	      0.00000000	      0.00000000	      0.00000000	      0.00000000	      0.00000000	    277.94358579	    934.93666808	     -9.86052112	      1.82803578	      0.00000000	      0.99919001	     -0.00000000	      0.97879057	     -0.00000000
     22.51000000	      0.00000000	      0.00000000	      0.00000000	      0.00000000	      0.00000000	      0.00000000	      0.00000000	      0.00000000	      0.00000000	    277.08303615	    912.37829097	    -10.94501592	      1.82546830	      0.00000000	      0.99925768	     -0.00000000	      0.82830933	     -0.00000000
     22.51100000	      0.00000000	      0.00000000	      0.00000000	      0.00000000	      0.00000000	      0.00000000	      0.00000000	      0.00000000	      0.00000000	    275.49928123	    889.88441973	    -11.93007029	      1.82315268	      0.00000000	      0.99931690	     -0.00000000	      0.66833804	     -0.00000000
     22.51200000	      0.00000000	      0.00000000	      0.00000000	      0.00000000	      0.00000000	      0.00000000	      0.00000000	      0.00000000	      0.00000000	    273.91552630	    867.39054849	    -12.91512465	      1.82083706	      0.00000000	      0.99937612	     -0.00000000	      0.50836675	     -0.00000000
     22.51300000	      0.00000000	      0.00000000	      0.00000000	      0.00000000	      0.00000000	      0.00000000	      0.00000000	      0.00000000	      0.00000000	    272.33177137	    844.89667724	    -13.90017902	      1.81852143	      0.00000000	      0.99943534	     -0.00000000	      0.34839547	     -0.00000000
     22.51400000	      0.00000000	      0.00000000	      0.00000000	      0.00000000	      0.00000000	      0.00000000	      0.00000000	      0.00000000	      0.00000000	    270.29057678	    822.55209155	    -14.81247362	      1.81638973	      0.00000000	      0.99948879	     -0.00000000	      0.18159284	     -0.00000000
     22.51500000	      0.00000000	      0.00000000	      0.00000000	      0.00000000	      0.00000000	      0.00000000	      0.00000000	      0.00000000	      0.00000000	    268.02066235	    800.28214865	    -15.68838835	      1.81434998	      0.00000000	      0.99953934	     -0.00000000	      0.01137456	     -0.00000000
